<?xml version="1.0" encoding="UTF-8"?>
<svg version="1.1" xmlns="http://www.w3.org/2000/svg" width="100" height="100">
<path d="M0 0 C10.07311179 8.63409582 19.71540545 17.5305352 29 27 C27.60652624 30.15204981 25.97514921 32.26171773 23.5234375 34.671875 C22.853125 35.33574219 22.1828125 35.99960937 21.4921875 36.68359375 C20.79351562 37.36550781 20.09484375 38.04742187 19.375 38.75 C18.66859375 39.44738281 17.9621875 40.14476562 17.234375 40.86328125 C15.49401297 42.58012488 13.74915019 44.29211832 12 46 C13.39347376 49.15204981 15.02485079 51.26171773 17.4765625 53.671875 C18.146875 54.33574219 18.8171875 54.99960937 19.5078125 55.68359375 C20.20648438 56.36550781 20.90515625 57.04742187 21.625 57.75 C22.33140625 58.44738281 23.0378125 59.14476562 23.765625 59.86328125 C25.50598703 61.58012488 27.25084981 63.29211832 29 65 C24.07242944 70.98527736 18.69051775 76.46310225 13.20288086 81.92749023 C11.66986628 83.45507121 10.14236233 84.98802081 8.61523438 86.52148438 C7.64355027 87.49250893 6.67155669 88.46322392 5.69921875 89.43359375 C4.82096436 90.31072021 3.94270996 91.18784668 3.0378418 92.09155273 C1 94 1 94 0 94 C-0.33 82.45 -0.66 70.9 -1 59 C-5.29 63.29 -9.58 67.58 -14 72 C-17.23475448 70.38262276 -18.70572021 69.52370777 -21 67 C-19.60652624 63.84795019 -17.97514921 61.73828227 -15.5234375 59.328125 C-14.853125 58.66425781 -14.1828125 58.00039063 -13.4921875 57.31640625 C-12.44417969 56.29353516 -12.44417969 56.29353516 -11.375 55.25 C-10.66859375 54.55261719 -9.9621875 53.85523438 -9.234375 53.13671875 C-7.49401297 51.41987512 -5.74915019 49.70788168 -4 48 C-5.39347376 44.84795019 -7.02485079 42.73828227 -9.4765625 40.328125 C-10.146875 39.66425781 -10.8171875 39.00039063 -11.5078125 38.31640625 C-12.20648438 37.63449219 -12.90515625 36.95257813 -13.625 36.25 C-14.33140625 35.55261719 -15.0378125 34.85523438 -15.765625 34.13671875 C-17.50598703 32.41987512 -19.25084981 30.70788168 -21 29 C-19.64062915 26.1394109 -18.35479531 24.14072301 -16 22 C-12 24 -12 24 -1 35 C-0.67 23.45 -0.34 11.9 0 0 Z M8 21 C8 25.95 8 30.9 8 36 C11.64231208 33.14856703 11.64231208 33.14856703 15 30 C15.34509128 26.99204833 15.34509128 26.99204833 13.46875 25.39453125 C12.49421875 24.61142578 12.49421875 24.61142578 11.5 23.8125 C10.345 22.884375 9.19 21.95625 8 21 Z M8 58 C8 62.95 8 67.9 8 73 C11.64231208 70.14856703 11.64231208 70.14856703 15 67 C15.34509128 63.99204833 15.34509128 63.99204833 13.46875 62.39453125 C12.49421875 61.61142578 12.49421875 61.61142578 11.5 60.8125 C10.345 59.884375 9.19 58.95625 8 58 Z " fill="#000000" transform="translate(46,3)"/>
</svg>
